<svg width="10" height="14" viewBox="0 0 10 14" fill="none" xmlns="http://www.w3.org/2000/svg">
<g id="lock">
<path id="lock_2" d="M1.25 13.6788C0.90625 13.6788 0.611979 13.5577 0.367188 13.3155C0.122396 13.0733 0 12.7821 0 12.442V6.25822C0 5.91811 0.122396 5.62696 0.367188 5.38476C0.611979 5.14256 0.90625 5.02146 1.25 5.02146H1.875V3.78471C1.875 2.92928 2.17969 2.20011 2.78906 1.59719C3.39844 0.99427 4.13542 0.69281 5 0.69281C5.86458 0.69281 6.60156 0.99427 7.21094 1.59719C7.82031 2.20011 8.125 2.92928 8.125 3.78471V5.02146H8.75C9.09375 5.02146 9.38802 5.14256 9.63281 5.38476C9.8776 5.62696 10 5.91811 10 6.25822V12.442C10 12.7821 9.8776 13.0733 9.63281 13.3155C9.38802 13.5577 9.09375 13.6788 8.75 13.6788H1.25ZM1.25 12.442H8.75V6.25822H1.25V12.442ZM5 10.5869C5.34375 10.5869 5.63802 10.4658 5.88281 10.2236C6.1276 9.98138 6.25 9.69023 6.25 9.35012C6.25 9.01001 6.1276 8.71886 5.88281 8.47666C5.63802 8.23446 5.34375 8.11336 5 8.11336C4.65625 8.11336 4.36198 8.23446 4.11719 8.47666C3.8724 8.71886 3.75 9.01001 3.75 9.35012C3.75 9.69023 3.8724 9.98138 4.11719 10.2236C4.36198 10.4658 4.65625 10.5869 5 10.5869ZM3.125 5.02146H6.875V3.78471C6.875 3.26939 6.69271 2.83137 6.32812 2.47065C5.96354 2.10993 5.52083 1.92957 5 1.92957C4.47917 1.92957 4.03646 2.10993 3.67188 2.47065C3.30729 2.83137 3.125 3.26939 3.125 3.78471V5.02146Z" fill="#1C1B1F"/>
</g>
</svg>
