<svg width="33" height="31" viewBox="0 0 33 31" fill="none" xmlns="http://www.w3.org/2000/svg">
<g id="pajamas:hamburger" clip-path="url(#clip0_247_212)">
<path id="Vector" fill-rule="evenodd" clip-rule="evenodd" d="M0 7.08984C0 6.71378 0.162974 6.35311 0.453069 6.08719C0.743165 5.82127 1.13662 5.67188 1.54688 5.67188H31.4531C31.8634 5.67188 32.2568 5.82127 32.5469 6.08719C32.837 6.35311 33 6.71378 33 7.08984C33 7.46591 32.837 7.82658 32.5469 8.0925C32.2568 8.35842 31.8634 8.50781 31.4531 8.50781H1.54688C1.13662 8.50781 0.743165 8.35842 0.453069 8.0925C0.162974 7.82658 0 7.46591 0 7.08984ZM0 15.125C0 14.7489 0.162974 14.3883 0.453069 14.1223C0.743165 13.8564 1.13662 13.707 1.54688 13.707H31.4531C31.8634 13.707 32.2568 13.8564 32.5469 14.1223C32.837 14.3883 33 14.7489 33 15.125C33 15.5011 32.837 15.8617 32.5469 16.1277C32.2568 16.3936 31.8634 16.543 31.4531 16.543H1.54688C1.13662 16.543 0.743165 16.3936 0.453069 16.1277C0.162974 15.8617 0 15.5011 0 15.125ZM1.54688 21.7422C1.13662 21.7422 0.743165 21.8916 0.453069 22.1575C0.162974 22.4234 0 22.7841 0 23.1602C0 23.5362 0.162974 23.8969 0.453069 24.1628C0.743165 24.4287 1.13662 24.5781 1.54688 24.5781H31.4531C31.8634 24.5781 32.2568 24.4287 32.5469 24.1628C32.837 23.8969 33 23.5362 33 23.1602C33 22.7841 32.837 22.4234 32.5469 22.1575C32.2568 21.8916 31.8634 21.7422 31.4531 21.7422H1.54688Z" fill="black"/>
</g>
<defs>
<clipPath id="clip0_247_212">
<rect width="33" height="30.25" fill="white"/>
</clipPath>
</defs>
</svg>
