<svg width="50" height="50" viewBox="0 0 50 50" fill="none" xmlns="http://www.w3.org/2000/svg">
<g id="Phone Icon">
<rect id="Rectangle 40" width="50" height="50" fill="#4D7EA8"/>
<g id="call">
<mask id="mask0_247_572" style="mask-type:alpha" maskUnits="userSpaceOnUse" x="5" y="5" width="40" height="40">
<rect id="Bounding box" x="5" y="5" width="40" height="40" fill="#D9D9D9"/>
</mask>
<g mask="url(#mask0_247_572)">
<path id="call_2" d="M38.25 40C34.7778 40 31.3472 39.2431 27.9583 37.7292C24.5694 36.2153 21.4861 34.0694 18.7083 31.2917C15.9306 28.5139 13.7847 25.4306 12.2708 22.0417C10.7569 18.6528 10 15.2222 10 11.75C10 11.25 10.1667 10.8333 10.5 10.5C10.8333 10.1667 11.25 10 11.75 10H18.5C18.8889 10 19.2361 10.1319 19.5417 10.3958C19.8472 10.6597 20.0278 10.9722 20.0833 11.3333L21.1667 17.1667C21.2222 17.6111 21.2083 17.9861 21.125 18.2917C21.0417 18.5972 20.8889 18.8611 20.6667 19.0833L16.625 23.1667C17.1806 24.1944 17.8403 25.1875 18.6042 26.1458C19.3681 27.1042 20.2083 28.0278 21.125 28.9167C21.9861 29.7778 22.8889 30.5764 23.8333 31.3125C24.7778 32.0486 25.7778 32.7222 26.8333 33.3333L30.75 29.4167C31 29.1667 31.3264 28.9792 31.7292 28.8542C32.1319 28.7292 32.5278 28.6944 32.9167 28.75L38.6667 29.9167C39.0556 30.0278 39.375 30.2292 39.625 30.5208C39.875 30.8125 40 31.1389 40 31.5V38.25C40 38.75 39.8333 39.1667 39.5 39.5C39.1667 39.8333 38.75 40 38.25 40ZM15.0417 20L17.7917 17.25L17.0833 13.3333H13.375C13.5139 14.4722 13.7083 15.5972 13.9583 16.7083C14.2083 17.8194 14.5694 18.9167 15.0417 20ZM29.9583 34.9167C31.0417 35.3889 32.1458 35.7639 33.2708 36.0417C34.3958 36.3194 35.5278 36.5 36.6667 36.5833V32.9167L32.75 32.125L29.9583 34.9167Z" fill="white"/>
</g>
</g>
</g>
</svg>
