<svg width="50" height="50" viewBox="0 0 50 50" fill="none" xmlns="http://www.w3.org/2000/svg">
<g id="Phone Icon">
<g id="call">
<mask id="mask0_247_265" style="mask-type:alpha" maskUnits="userSpaceOnUse" x="5" y="5" width="40" height="40">
<rect id="Bounding box" x="5" y="5" width="40" height="40" fill="#D9D9D9"/>
</mask>
<g mask="url(#mask0_247_265)">
<g id="call_2">
<path d="M38.25 40C34.7778 40 31.3472 39.2431 27.9583 37.7292C24.5694 36.2153 21.4861 34.0694 18.7083 31.2917C15.9306 28.5139 13.7847 25.4306 12.2708 22.0417C10.7569 18.6528 10 15.2222 10 11.75C10 11.25 10.1667 10.8333 10.5 10.5C10.8333 10.1667 11.25 10 11.75 10H18.5C18.8889 10 19.2361 10.1319 19.5417 10.3958C19.8472 10.6597 20.0278 10.9722 20.0833 11.3333L21.1667 17.1667C21.2222 17.6111 21.2083 17.9861 21.125 18.2917C21.0417 18.5972 20.8889 18.8611 20.6667 19.0833L16.625 23.1667C17.1806 24.1944 17.8403 25.1875 18.6042 26.1458C19.3681 27.1042 20.2083 28.0278 21.125 28.9167C21.9861 29.7778 22.8889 30.5764 23.8333 31.3125C24.7778 32.0486 25.7778 32.7222 26.8333 33.3333L30.75 29.4167C31 29.1667 31.3264 28.9792 31.7292 28.8542C32.1319 28.7292 32.5278 28.6944 32.9167 28.75L38.6667 29.9167C39.0556 30.0278 39.375 30.2292 39.625 30.5208C39.875 30.8125 40 31.1389 40 31.5V38.25C40 38.75 39.8333 39.1667 39.5 39.5C39.1667 39.8333 38.75 40 38.25 40ZM15.0417 20L17.7917 17.25L17.0833 13.3333H13.375C13.5139 14.4722 13.7083 15.5972 13.9583 16.7083C14.2083 17.8194 14.5694 18.9167 15.0417 20ZM29.9583 34.9167C31.0417 35.3889 32.1458 35.7639 33.2708 36.0417C34.3958 36.3194 35.5278 36.5 36.6667 36.5833V32.9167L32.75 32.125L29.9583 34.9167Z" fill="#669F52" fill-opacity="0.9"/>
<path d="M19.5891 11.4094L19.5903 11.417L19.5917 11.4246L20.6723 17.243C20.7207 17.6404 20.7025 17.9405 20.6426 18.1601C20.582 18.3824 20.4733 18.5696 20.3131 18.7298L20.3113 18.7316L16.2696 22.8149L16.0089 23.0784L16.1851 23.4044C16.7554 24.4595 17.4317 25.4771 18.2132 26.4575C18.9901 27.4322 19.8439 28.3707 20.7742 29.273C21.6488 30.1473 22.566 30.9587 23.526 31.7069C24.4888 32.4573 25.5078 33.1437 26.5828 33.766L26.9153 33.9585L27.1869 33.6869L31.1036 29.7702C31.2861 29.5877 31.5372 29.4373 31.8774 29.3317C32.2097 29.2286 32.5263 29.2014 32.8323 29.2431L38.5469 30.4026C38.8384 30.489 39.0662 30.6372 39.2454 30.8462C39.4231 31.0535 39.5 31.2662 39.5 31.5V38.25C39.5 38.6263 39.3799 38.913 39.1464 39.1464C38.913 39.3799 38.6263 39.5 38.25 39.5C34.8528 39.5 31.4915 38.7599 28.1623 37.2726C24.8323 35.7851 21.799 33.6753 19.0619 30.9381C16.3247 28.201 14.2149 25.1677 12.7274 21.8377C11.2401 18.5085 10.5 15.1472 10.5 11.75C10.5 11.3737 10.6201 11.087 10.8536 10.8536C11.087 10.6201 11.3737 10.5 11.75 10.5H18.5C18.764 10.5 18.9963 10.5855 19.2149 10.7742C19.4406 10.9692 19.5536 11.1783 19.5891 11.4094ZM14.5833 20.1998L14.8765 20.8723L15.3952 20.3536L18.1452 17.6036L18.3303 17.4185L18.2837 17.161L17.5754 13.2444L17.501 12.8333H17.0833H13.375H12.8103L12.8787 13.3939C13.0196 14.5492 13.2168 15.6906 13.4705 16.8181C13.7277 17.9612 14.0989 19.0885 14.5833 20.1998ZM29.6048 34.5631L29.086 35.0819L29.7585 35.375C30.8672 35.8583 31.9981 36.2424 33.151 36.5271C34.3029 36.8115 35.4628 36.9966 36.6302 37.082L37.1667 37.1213V36.5833V32.9167V32.5076L36.7657 32.4266L32.8491 31.6349L32.5861 31.5818L32.3964 31.7714L29.6048 34.5631Z" stroke="white" stroke-opacity="0.21"/>
</g>
</g>
</g>
</g>
</svg>
