<svg width="24" height="23" viewBox="0 0 24 23" fill="none" xmlns="http://www.w3.org/2000/svg">
<g id="search">
<path id="search_2" d="M21.5 22.5L13.625 14.625C13 15.125 12.2812 15.5208 11.4688 15.8125C10.6562 16.1042 9.79167 16.25 8.875 16.25C6.60417 16.25 4.68229 15.4635 3.10938 13.8906C1.53646 12.3177 0.75 10.3958 0.75 8.125C0.75 5.85417 1.53646 3.93229 3.10938 2.35938C4.68229 0.786458 6.60417 0 8.875 0C11.1458 0 13.0677 0.786458 14.6406 2.35938C16.2135 3.93229 17 5.85417 17 8.125C17 9.04167 16.8542 9.90625 16.5625 10.7188C16.2708 11.5312 15.875 12.25 15.375 12.875L23.25 20.75L21.5 22.5ZM8.875 13.75C10.4375 13.75 11.7656 13.2031 12.8594 12.1094C13.9531 11.0156 14.5 9.6875 14.5 8.125C14.5 6.5625 13.9531 5.23438 12.8594 4.14062C11.7656 3.04688 10.4375 2.5 8.875 2.5C7.3125 2.5 5.98438 3.04688 4.89062 4.14062C3.79688 5.23438 3.25 6.5625 3.25 8.125C3.25 9.6875 3.79688 11.0156 4.89062 12.1094C5.98438 13.2031 7.3125 13.75 8.875 13.75Z" fill="black" fill-opacity="0.8"/>
</g>
</svg>
