<svg width="28" height="24" viewBox="0 0 28 24" fill="none" xmlns="http://www.w3.org/2000/svg">
<g id="octicon:x-12">
<path id="Vector" d="M5.51276 4.43951C5.67508 4.30018 5.86785 4.18965 6.08005 4.11423C6.29225 4.03882 6.51971 4 6.74943 4C6.97914 4 7.20661 4.03882 7.4188 4.11423C7.631 4.18965 7.82378 4.30018 7.98609 4.43951L14.3328 9.87751L20.6794 4.43951C20.8418 4.30031 21.0346 4.18989 21.2468 4.11455C21.459 4.03922 21.6864 4.00044 21.9161 4.00044C22.1458 4.00044 22.3732 4.03922 22.5854 4.11455C22.7976 4.18989 22.9904 4.30031 23.1528 4.43951C23.3152 4.57871 23.444 4.74397 23.5319 4.92584C23.6198 5.10772 23.665 5.30265 23.665 5.49951C23.665 5.69637 23.6198 5.8913 23.5319 6.07318C23.444 6.25505 23.3152 6.42031 23.1528 6.55951L16.8084 11.9995L23.1528 17.4395C23.4807 17.7206 23.665 18.1019 23.665 18.4995C23.665 18.8971 23.4807 19.2784 23.1528 19.5595C22.8248 19.8406 22.3799 19.9986 21.9161 19.9986C21.4523 19.9986 21.0074 19.8406 20.6794 19.5595L14.3328 14.1215L7.98609 19.5595C7.65811 19.8406 7.21327 19.9986 6.74943 19.9986C6.28559 19.9986 5.84074 19.8406 5.51276 19.5595C5.18478 19.2784 5.00052 18.8971 5.00052 18.4995C5.00052 18.1019 5.18478 17.7206 5.51276 17.4395L11.8571 11.9995L5.51276 6.55951C5.35021 6.42038 5.22126 6.25515 5.13327 6.07326C5.04529 5.89138 5 5.69641 5 5.49951C5 5.30261 5.04529 5.10764 5.13327 4.92576C5.22126 4.74387 5.35021 4.57864 5.51276 4.43951Z" fill="black"/>
</g>
</svg>
